<?xml version="1.0" encoding="utf-8"?>
<!-- Generator: Adobe Illustrator 27.2.0, SVG Export Plug-In . SVG Version: 6.00 Build 0)  -->
<svg version="1.1" id="Capa_1" xmlns="http://www.w3.org/2000/svg" xmlns:xlink="http://www.w3.org/1999/xlink" x="0px" y="0px" preserveAspectRatio="none"
	 viewBox="52 90 638 574" style="enable-background:new 0 0 800 800;" xml:space="preserve">
<style type="text/css">
	.st0{fill:#FF2B2A;}
</style>
<g id="uRfgSZ_00000064326089769392519030000017157769018468830641_">
	<g>
		<path class="st0" d="M369.1,663.7c-6.3-8.9-12-18.1-19-26.4c-19.1-22.6-41.9-41.5-65.1-59.7c-31.9-25.2-64.7-49.3-96.5-74.5
			C157.2,478.2,127,452,102,420.5c-29.2-36.9-46.5-78.8-49.3-125.9c-1.3-21.4-1.2-43,0.5-64.3c2.1-26.9,15.3-49.7,30.7-71.1
			c23.9-33.3,56-56.1,95.7-65.6c30.2-7.3,62-8.6,91.8,2.1c38.1,13.6,67.6,39,87.5,74.5c4,7.1,5.8,15.5,8.5,23.4
			c0.7,2,1.1,4.1,2.7,6.3c0.9-1.8,1.8-3.7,2.6-5.5c8.2-18.7,17.1-36.9,30.8-52.3c27.2-30.5,61.3-47.9,101.8-51.6
			c58.9-5.4,108.4,14.2,147.4,58.9c21.3,24.4,32.3,53.2,35.8,85.2c2.7,24.5,2.8,48.8,0.3,73.3c-3.5,34.8-16.4,66-35.6,94.9
			c-18.6,28-41.7,52.1-67.5,73.2c-29.5,24.1-60.2,46.9-90.2,70.5c-41.5,32.5-81.2,67.1-117.3,105.6
			C374.9,655.5,372.2,659.7,369.1,663.7z"/>
	</g>
</g>
<g>
	<defs>
		<rect id="SVGID_1_" x="-375.4" y="296.5" width="1280.3" height="712.4"/>
	</defs>
	<clipPath id="SVGID_00000062886597754909454370000015569139530262673087_">
		<use xlink:href="#SVGID_1_"  style="overflow:visible;"/>
	</clipPath>
</g>
</svg>
